<svg width="22" height="20" viewBox="0 0 22 20" fill="none" xmlns="http://www.w3.org/2000/svg">
<path d="M0.954828 1.90978H20.4753C21.0024 1.90978 21.4302 1.48199 21.4302 0.954891C21.4302 0.427791 21.0024 0 20.4753 0H0.954828C0.427763 0 0 0.427791 0 0.954891C0 1.48199 0.427763 1.90978 0.954828 1.90978Z" fill="#1861C7"/>
<path d="M0.954828 10.8841H14.2063C14.7334 10.8841 15.1611 10.4564 15.1611 9.92926C15.1611 9.40216 14.7334 8.97437 14.2063 8.97437H0.954828C0.427763 8.97437 0 9.40216 0 9.92926C0 10.4564 0.427763 10.8841 0.954828 10.8841Z" fill="#1861C7"/>
<path d="M21.0452 17.9529H0.954828C0.427763 17.9529 0 18.3807 0 18.9078C0 19.4349 0.427763 19.8627 0.954828 19.8627H21.0452C21.5722 19.8627 22 19.4349 22 18.9078C22 18.3807 21.5722 17.9529 21.0452 17.9529Z" fill="#1861C7"/>
</svg>
